HIERARCHY
ROOT mixamorig:Hips
{
	OFFSET -0.000008 104.274872 1.554316
	CHANNELS 6 Xposition Yposition Zposition Xrotation Yrotation Zrotation
	JOINT mixamorig:Spine
	{
		OFFSET -0.000005 10.181595 0.131519
		CHANNELS 6 Xposition Yposition Zposition Xrotation Yrotation Zrotation
		JOINT mixamorig:Spine1
		{
			OFFSET -0.000000 9.893959 -1.470707
			CHANNELS 6 Xposition Yposition Zposition Xrotation Yrotation Zrotation
			JOINT mixamorig:Spine2
			{
				OFFSET -0.000000 9.220757 -1.370641
				CHANNELS 6 Xposition Yposition Zposition Xrotation Yrotation Zrotation
				JOINT mixamorig:Neck
				{
					OFFSET 0.000001 16.740417 -2.049036
					CHANNELS 6 Xposition Yposition Zposition Xrotation Yrotation Zrotation
					JOINT mixamorig:Head
					{
						OFFSET 0.000000 9.617874 1.685006
						CHANNELS 6 Xposition Yposition Zposition Xrotation Yrotation Zrotation
						JOINT mixamorig:HeadTop_End
						{
							OFFSET 0.000002 22.037354 7.501101
							CHANNELS 6 Xposition Yposition Zposition Xrotation Yrotation Zrotation
							End Site
							{
								OFFSET 0.000168 2310.654297 -282.823242
							}
						}
					}
				}
				JOINT mixamorig:RightShoulder
				{
					OFFSET -4.569970 11.014908 -2.160885
					CHANNELS 6 Xposition Yposition Zposition Xrotation Yrotation Zrotation
					JOINT mixamorig:RightArm
					{
						OFFSET -10.592851 -0.524811 -2.232101
						CHANNELS 6 Xposition Yposition Zposition Xrotation Yrotation Zrotation
						JOINT mixamorig:RightForeArm
						{
							OFFSET -27.841511 0.000031 -0.000004
							CHANNELS 6 Xposition Yposition Zposition Xrotation Yrotation Zrotation
							JOINT mixamorig:RightHand
							{
								OFFSET -28.328831 -0.000015 0.000015
								CHANNELS 6 Xposition Yposition Zposition Xrotation Yrotation Zrotation
								JOINT mixamorig:RightHandThumb1
								{
									OFFSET -2.464806 -1.573990 2.681852
									CHANNELS 6 Xposition Yposition Zposition Xrotation Yrotation Zrotation
									JOINT mixamorig:RightHandThumb2
									{
										OFFSET -3.215179 -1.872803 1.924282
										CHANNELS 6 Xposition Yposition Zposition Xrotation Yrotation Zrotation
										JOINT mixamorig:RightHandThumb3
										{
											OFFSET -2.654831 -1.527969 1.512609
											CHANNELS 6 Xposition Yposition Zposition Xrotation Yrotation Zrotation
											JOINT mixamorig:RightHandThumb4
											{
												OFFSET -2.018814 -1.152008 1.108052
												CHANNELS 6 Xposition Yposition Zposition Xrotation Yrotation Zrotation
												End Site
												{
													OFFSET -188.809540 -114.533607 132.431396
												}
											}
										}
									}
								}
								JOINT mixamorig:RightHandIndex1
								{
									OFFSET -9.108284 -0.517868 2.259835
									CHANNELS 6 Xposition Yposition Zposition Xrotation Yrotation Zrotation
									JOINT mixamorig:RightHandIndex2
									{
										OFFSET -3.699989 0.000000 0.001215
										CHANNELS 6 Xposition Yposition Zposition Xrotation Yrotation Zrotation
										JOINT mixamorig:RightHandIndex3
										{
											OFFSET -2.850006 0.000031 -0.000522
											CHANNELS 6 Xposition Yposition Zposition Xrotation Yrotation Zrotation
											JOINT mixamorig:RightHandIndex4
											{
												OFFSET -2.772186 -0.000015 -0.000020
												CHANNELS 6 Xposition Yposition Zposition Xrotation Yrotation Zrotation
												End Site
												{
													OFFSET -277.218445 0.000000 -0.050231
												}
											}
										}
									}
								}
								JOINT mixamorig:RightHandMiddle1
								{
									OFFSET -9.532516 -0.000031 -0.000023
									CHANNELS 6 Xposition Yposition Zposition Xrotation Yrotation Zrotation
									JOINT mixamorig:RightHandMiddle2
									{
										OFFSET -3.700005 -0.000015 0.003713
										CHANNELS 6 Xposition Yposition Zposition Xrotation Yrotation Zrotation
										JOINT mixamorig:RightHandMiddle3
										{
											OFFSET -2.949974 0.000015 -0.002054
											CHANNELS 6 Xposition Yposition Zposition Xrotation Yrotation Zrotation
											JOINT mixamorig:RightHandMiddle4
											{
												OFFSET -2.946640 0.000000 -0.000156
												CHANNELS 6 Xposition Yposition Zposition Xrotation Yrotation Zrotation
												End Site
												{
													OFFSET -294.664337 0.000000 -0.113670
												}
											}
										}
									}
								}
								JOINT mixamorig:RightHandRing1
								{
									OFFSET -9.103600 -0.043076 -1.865134
									CHANNELS 6 Xposition Yposition Zposition Xrotation Yrotation Zrotation
									JOINT mixamorig:RightHandRing2
									{
										OFFSET -3.379288 0.000000 -0.001055
										CHANNELS 6 Xposition Yposition Zposition Xrotation Yrotation Zrotation
										JOINT mixamorig:RightHandRing3
										{
											OFFSET -2.889687 -0.000015 0.000379
											CHANNELS 6 Xposition Yposition Zposition Xrotation Yrotation Zrotation
											JOINT mixamorig:RightHandRing4
											{
												OFFSET -2.638809 -0.000015 0.000941
												CHANNELS 6 Xposition Yposition Zposition Xrotation Yrotation Zrotation
												End Site
												{
													OFFSET -263.880371 0.000000 0.516020
												}
											}
										}
									}
								}
								JOINT mixamorig:RightHandPinky1
								{
									OFFSET -8.076683 -0.486710 -3.806280
									CHANNELS 6 Xposition Yposition Zposition Xrotation Yrotation Zrotation
									JOINT mixamorig:RightHandPinky2
									{
										OFFSET -3.600014 -0.000015 -0.003747
										CHANNELS 6 Xposition Yposition Zposition Xrotation Yrotation Zrotation
										JOINT mixamorig:RightHandPinky3
										{
											OFFSET -2.099983 0.000000 -0.005739
											CHANNELS 6 Xposition Yposition Zposition Xrotation Yrotation Zrotation
											JOINT mixamorig:RightHandPinky4
											{
												OFFSET -2.115768 -0.000031 -0.003680
												CHANNELS 6 Xposition Yposition Zposition Xrotation Yrotation Zrotation
												End Site
												{
													OFFSET -211.577087 0.000000 -0.350686
												}
											}
										}
									}
								}
							}
						}
					}
				}
				JOINT mixamorig:LeftShoulder
				{
					OFFSET 4.570447 11.014725 -2.160855
					CHANNELS 6 Xposition Yposition Zposition Xrotation Yrotation Zrotation
					JOINT mixamorig:LeftArm
					{
						OFFSET 10.592371 -0.524597 -2.232119
						CHANNELS 6 Xposition Yposition Zposition Xrotation Yrotation Zrotation
						JOINT mixamorig:LeftForeArm
						{
							OFFSET 27.841532 -0.000031 0.000026
							CHANNELS 6 Xposition Yposition Zposition Xrotation Yrotation Zrotation
							JOINT mixamorig:LeftHand
							{
								OFFSET 28.328846 -0.000061 0.000022
								CHANNELS 6 Xposition Yposition Zposition Xrotation Yrotation Zrotation
								JOINT mixamorig:LeftHandThumb1
								{
									OFFSET 2.466141 -1.576172 2.681732
									CHANNELS 6 Xposition Yposition Zposition Xrotation Yrotation Zrotation
									JOINT mixamorig:LeftHandThumb2
									{
										OFFSET 3.217812 -1.872070 1.916482
										CHANNELS 6 Xposition Yposition Zposition Xrotation Yrotation Zrotation
										JOINT mixamorig:LeftHandThumb3
										{
											OFFSET 2.656029 -1.528778 1.514513
											CHANNELS 6 Xposition Yposition Zposition Xrotation Yrotation Zrotation
											JOINT mixamorig:LeftHandThumb4
											{
												OFFSET 2.020889 -1.154053 1.115139
												CHANNELS 6 Xposition Yposition Zposition Xrotation Yrotation Zrotation
												End Site
												{
													OFFSET 190.885437 -115.081749 130.048782
												}
											}
										}
									}
								}
								JOINT mixamorig:LeftHandIndex1
								{
									OFFSET 9.109314 -0.518021 2.259871
									CHANNELS 6 Xposition Yposition Zposition Xrotation Yrotation Zrotation
									JOINT mixamorig:LeftHandIndex2
									{
										OFFSET 3.699989 0.000000 -0.000322
										CHANNELS 6 Xposition Yposition Zposition Xrotation Yrotation Zrotation
										JOINT mixamorig:LeftHandIndex3
										{
											OFFSET 2.850006 0.000000 0.000352
											CHANNELS 6 Xposition Yposition Zposition Xrotation Yrotation Zrotation
											JOINT mixamorig:LeftHandIndex4
											{
												OFFSET 2.774864 -0.000031 -0.000027
												CHANNELS 6 Xposition Yposition Zposition Xrotation Yrotation Zrotation
												End Site
												{
													OFFSET 277.486267 0.000000 -0.009857
												}
											}
										}
									}
								}
								JOINT mixamorig:LeftHandMiddle1
								{
									OFFSET 9.533394 0.000061 0.000044
									CHANNELS 6 Xposition Yposition Zposition Xrotation Yrotation Zrotation
									JOINT mixamorig:LeftHandMiddle2
									{
										OFFSET 3.699989 -0.000015 -0.000231
										CHANNELS 6 Xposition Yposition Zposition Xrotation Yrotation Zrotation
										JOINT mixamorig:LeftHandMiddle3
										{
											OFFSET 2.949997 -0.000015 -0.000059
											CHANNELS 6 Xposition Yposition Zposition Xrotation Yrotation Zrotation
											JOINT mixamorig:LeftHandMiddle4
											{
												OFFSET 2.952896 0.000031 0.000063
												CHANNELS 6 Xposition Yposition Zposition Xrotation Yrotation Zrotation
												End Site
												{
													OFFSET 295.289337 0.000000 0.022810
												}
											}
										}
									}
								}
								JOINT mixamorig:LeftHandRing1
								{
									OFFSET 9.104523 -0.042999 -1.865074
									CHANNELS 6 Xposition Yposition Zposition Xrotation Yrotation Zrotation
									JOINT mixamorig:LeftHandRing2
									{
										OFFSET 3.150009 -0.000031 0.000043
										CHANNELS 6 Xposition Yposition Zposition Xrotation Yrotation Zrotation
										JOINT mixamorig:LeftHandRing3
										{
											OFFSET 2.949982 -0.000015 0.000040
											CHANNELS 6 Xposition Yposition Zposition Xrotation Yrotation Zrotation
											JOINT mixamorig:LeftHandRing4
											{
												OFFSET 2.644348 0.000000 0.000057
												CHANNELS 6 Xposition Yposition Zposition Xrotation Yrotation Zrotation
												End Site
												{
													OFFSET 264.434631 0.000000 0.012105
												}
											}
										}
									}
								}
								JOINT mixamorig:LeftHandPinky1
								{
									OFFSET 8.077789 -0.486847 -3.806259
									CHANNELS 6 Xposition Yposition Zposition Xrotation Yrotation Zrotation
									JOINT mixamorig:LeftHandPinky2
									{
										OFFSET 3.599953 0.000031 0.014727
										CHANNELS 6 Xposition Yposition Zposition Xrotation Yrotation Zrotation
										JOINT mixamorig:LeftHandPinky3
										{
											OFFSET 2.100021 0.000015 0.007705
											CHANNELS 6 Xposition Yposition Zposition Xrotation Yrotation Zrotation
											JOINT mixamorig:LeftHandPinky4
											{
												OFFSET 2.125504 0.000031 0.007517
												CHANNELS 6 Xposition Yposition Zposition Xrotation Yrotation Zrotation
												End Site
												{
													OFFSET 212.550781 0.000000 0.625752
												}
											}
										}
									}
								}
							}
						}
					}
				}
			}
		}
	}
	JOINT mixamorig:RightUpLeg
	{
		OFFSET -8.207787 -6.751648 -1.599560
		CHANNELS 6 Xposition Yposition Zposition Xrotation Yrotation Zrotation
		JOINT mixamorig:RightLeg
		{
			OFFSET -0.000002 -44.370117 0.345942
			CHANNELS 6 Xposition Yposition Zposition Xrotation Yrotation Zrotation
			JOINT mixamorig:RightFoot
			{
				OFFSET 0.000003 -44.423679 -3.043532
				CHANNELS 6 Xposition Yposition Zposition Xrotation Yrotation Zrotation
				JOINT mixamorig:RightToeBase
				{
					OFFSET -0.000002 -8.728671 10.710558
					CHANNELS 6 Xposition Yposition Zposition Xrotation Yrotation Zrotation
					JOINT mixamorig:RightToe_End
					{
						OFFSET -0.000001 -0.000679 9.278119
						CHANNELS 6 Xposition Yposition Zposition Xrotation Yrotation Zrotation
						End Site
						{
							OFFSET 0.000000 -0.067690 927.812134
						}
					}
				}
			}
		}
	}
	JOINT mixamorig:LeftUpLeg
	{
		OFFSET 8.207793 -6.751686 -1.599556
		CHANNELS 6 Xposition Yposition Zposition Xrotation Yrotation Zrotation
		JOINT mixamorig:LeftLeg
		{
			OFFSET -0.000004 -44.370014 0.346954
			CHANNELS 6 Xposition Yposition Zposition Xrotation Yrotation Zrotation
			JOINT mixamorig:LeftFoot
			{
				OFFSET -0.000001 -44.423672 -3.044401
				CHANNELS 6 Xposition Yposition Zposition Xrotation Yrotation Zrotation
				JOINT mixamorig:LeftToeBase
				{
					OFFSET -0.000002 -8.728669 10.710558
					CHANNELS 6 Xposition Yposition Zposition Xrotation Yrotation Zrotation
					JOINT mixamorig:LeftToe_End
					{
						OFFSET -0.000003 -0.000679 9.278133
						CHANNELS 6 Xposition Yposition Zposition Xrotation Yrotation Zrotation
						End Site
						{
							OFFSET 0.000000 -0.068021 927.813477
						}
					}
				}
			}
		}
	}
}
MOTION
Frames: 3
Frame Time: 0.033333
0.000006 104.270477 1.554256 0.000010 0.000003 -0.000113 -0.000005 10.181587 0.131522 0.000001 -0.000003 0.000084 -0.000000 9.893967 -1.470711 0.000001 0.000000 -0.000000 -0.000000 9.220802 -1.370642 0.000000 -0.000000 -0.000000 0.000001 16.740433 -2.049030 0.000000 -0.000000 -0.000000 0.000000 9.617859 1.685014 0.000000 0.000000 0.000000 0.000002 22.037384 7.501101 0.000000 -0.000000 0.000000 -4.569968 11.014880 -2.160881 0.000008 0.000001 -0.000038 -10.592876 -0.524746 -2.231924 74.794055 24.867008 -19.134531 -27.841530 0.000017 0.000547 -57.433230 109.060123 75.115176 -28.328829 0.000004 0.000019 -0.000319 -0.000045 0.000007 -2.464434 -1.573824 2.682336 -45.014092 -160.787339 -3.074096 -3.215281 -1.872557 1.924618 150.798542 32.583400 14.644885 -2.654947 -1.527865 1.513070 146.267326 27.351173 -33.954264 -2.018830 -1.152002 1.108057 0.000001 -0.000003 0.000000 -9.108395 -0.517564 2.260136 102.800207 16.237479 -20.321875 -3.700088 0.000312 0.001537 98.501641 14.358012 -16.606148 -2.850094 0.000373 -0.000234 99.784795 11.507401 -13.641974 -2.772169 -0.000003 -0.000019 -0.000002 0.000001 -0.000001 -9.532610 0.000277 0.000261 98.612769 15.100705 -17.688038 -3.700068 0.000319 0.003990 98.006159 12.969631 -14.791241 -2.950064 0.000345 -0.001782 100.218908 11.469114 -13.693367 -2.946616 0.000003 -0.000151 -0.000000 0.000000 -0.000001 -9.103718 -0.042755 -1.864836 98.057508 18.039925 -20.666624 -3.379344 0.000324 -0.000771 98.517979 10.566566 -12.275287 -2.889771 0.000352 0.000669 103.142892 6.205807 -7.874146 -2.638795 -0.000002 0.000942 0.000001 0.000001 0.000000 -8.076763 -0.486394 -3.806010 89.333342 18.450948 -18.090401 -3.600026 0.000290 -0.003506 93.185391 7.391725 -7.443343 -2.100008 0.000330 -0.005481 95.592623 3.131292 -3.219700 -2.115771 -0.000040 -0.003679 0.000001 -0.000000 -0.000002 4.570446 11.014691 -2.160851 -0.000018 0.000010 -0.000021 10.592399 -0.524482 -2.232346 72.560767 -12.835251 9.439955 27.841820 0.000072 -0.000200 99.104959 -69.676761 78.459189 28.328823 -0.000029 0.000022 0.000020 -0.000089 -0.000000 2.466120 -1.576176 2.681888 -16.651079 154.380785 -51.548343 3.217789 -1.871692 1.916362 157.308395 -32.365767 -6.079235 2.656095 -1.528644 1.514451 140.631286 -27.788421 42.964086 2.020895 -1.154057 1.115147 -0.000003 0.000006 0.000004 9.109363 -0.517868 2.259717 87.072624 -15.654910 14.872049 3.700064 0.000146 -0.000446 83.854840 -15.015572 13.516156 2.850044 0.000188 0.000216 81.254451 -13.142989 11.287658 2.774895 -0.000034 -0.000027 -0.000002 -0.000001 -0.000000 9.533458 0.000216 -0.000110 87.103743 -14.851396 14.118278 3.700045 0.000175 -0.000377 88.032205 -14.702795 14.208814 2.950064 0.000149 -0.000177 84.168599 -19.024290 17.212186 2.952875 -0.000031 0.000062 -0.000001 0.000000 -0.000001 9.104578 -0.042850 -1.865234 84.162363 -14.115031 12.759111 3.150045 0.000200 -0.000084 90.022733 -13.936111 13.943440 2.950034 0.000165 -0.000060 89.276132 -16.869462 16.662497 2.644325 0.000046 0.000056 0.000002 -0.000000 0.000000 8.077833 -0.486743 -3.806393 70.593407 -16.191354 11.923806 3.599982 0.000168 0.014577 71.188412 -13.526819 10.075517 2.100047 0.000148 0.007547 75.138030 -13.790592 11.011721 2.125511 -0.000024 0.007514 -0.000002 0.000001 0.000000 -8.207786 -6.751667 -1.599560 -0.077001 -0.000003 0.000080 -0.000002 -44.370110 0.345938 0.153719 -0.000000 -0.000000 0.000000 -44.423679 -3.043532 -0.076700 0.000000 -0.000002 -0.000006 -8.728667 10.710559 -0.000009 -0.000000 -0.000000 -0.000001 -0.000679 9.278123 0.000000 -0.000000 -0.000000 8.207792 -6.751710 -1.599556 -0.074518 -0.000003 0.000081 -0.000002 -44.370014 0.346960 0.148822 0.000002 0.000000 -0.000001 -44.423664 -3.044403 -0.074314 0.000000 -0.000002 -0.000004 -8.728671 10.710558 0.000007 -0.000000 -0.000000 0.000000 -0.000680 9.278137 -0.000000 0.000000 -0.000001 
0.000006 104.270477 1.554256 0.000010 0.000003 -0.000113 -0.000005 10.181587 0.131522 0.000001 -0.000003 0.000084 -0.000000 9.893967 -1.470711 0.000001 0.000000 -0.000000 -0.000000 9.220802 -1.370642 0.000000 -0.000000 -0.000000 0.000001 16.740433 -2.049030 0.000000 -0.000000 -0.000000 0.000000 9.617859 1.685014 0.000000 0.000000 0.000000 0.000002 22.037384 7.501101 0.000000 -0.000000 0.000000 -4.569968 11.014880 -2.160881 0.000008 0.000001 -0.000038 -10.592876 -0.524751 -2.231922 75.403062 25.527472 -19.862636 -27.841518 0.000013 0.000534 -53.314059 106.373728 67.701627 -28.328814 0.000008 0.000025 -0.000318 -0.000044 0.000007 -2.464401 -1.573778 2.682308 -47.176929 -160.328541 -8.417040 -3.215275 -1.872542 1.924619 149.524507 32.771432 18.212757 -2.654954 -1.527861 1.513055 145.639796 27.677439 -31.309164 -2.018834 -1.152011 1.108054 -0.000004 -0.000001 0.000002 -9.108382 -0.517565 2.260134 101.361988 16.479882 -20.110264 -3.700076 0.000315 0.001520 97.886214 14.606375 -16.713008 -2.850094 0.000355 -0.000262 96.708717 12.399830 -13.928480 -2.772164 -0.000013 -0.000016 0.000000 0.000000 0.000000 -9.532595 0.000261 0.000252 95.806162 16.237221 -18.102487 -3.700081 0.000330 0.003982 95.550139 13.010504 -14.217734 -2.950052 0.000315 -0.001779 97.990907 12.505860 -14.357438 -2.946617 0.000015 -0.000157 0.000000 0.000000 0.000000 -9.103704 -0.042769 -1.864855 94.904160 18.257340 -19.810791 -3.379329 0.000319 -0.000798 96.389993 9.596937 -10.744810 -2.889759 0.000347 0.000674 103.047890 7.332600 -9.276563 -2.638833 -0.000014 0.000938 0.000001 0.000001 0.000000 -8.076768 -0.486399 -3.806031 86.344943 21.463405 -20.017015 -3.600040 0.000279 -0.003513 91.012441 9.575148 -9.378595 -2.100026 0.000327 -0.005467 95.665043 5.070414 -5.357299 -2.115783 -0.000041 -0.003678 0.000003 -0.000002 -0.000000 4.570446 11.014691 -2.160851 -0.000018 0.000010 -0.000021 10.592383 -0.524493 -2.232344 72.567782 -6.495326 4.770926 27.841820 0.000073 -0.000185 101.492547 -72.251927 83.545337 28.328838 -0.000029 0.000019 0.000022 -0.000089 0.000000 2.466241 -1.576079 2.681844 1.857673 164.464371 -89.645536 3.217820 -1.871738 1.916387 167.653195 -29.128356 11.874707 2.656110 -1.528666 1.514495 141.756970 -26.500919 60.113977 2.020879 -1.154069 1.115144 0.000005 0.000002 0.000008 9.109385 -0.517867 2.259740 86.736326 -19.936470 18.840254 3.700041 0.000145 -0.000470 82.607682 -11.827261 10.415034 2.850039 0.000201 0.000199 81.702361 -9.003804 7.788882 2.774894 -0.000030 -0.000023 0.000000 0.000002 0.000000 9.533477 0.000196 -0.000101 86.096898 -18.411659 17.208593 3.700033 0.000187 -0.000388 87.744421 -9.162433 8.807596 2.950048 0.000184 -0.000203 88.773219 -10.812434 10.587508 2.952866 -0.000031 0.000065 -0.000000 -0.000002 0.000000 9.104609 -0.042874 -1.865230 84.088665 -18.255315 16.490503 3.150050 0.000222 -0.000111 92.026793 -10.297889 10.668511 2.950017 0.000202 -0.000072 93.862242 -10.228106 10.939557 2.644324 0.000045 0.000053 -0.000000 0.000000 0.000000 8.077854 -0.486745 -3.806392 72.773637 -18.944293 14.470174 3.599996 0.000176 0.014578 76.068794 -15.471926 12.543893 2.100048 0.000161 0.007560 78.897721 -12.677941 10.847860 2.125501 -0.000017 0.007513 0.000000 0.000003 0.000001 -8.207786 -6.751667 -1.599560 -0.077001 -0.000003 0.000080 -0.000002 -44.370110 0.345938 0.153719 -0.000000 -0.000000 0.000000 -44.423679 -3.043532 -0.076700 0.000000 -0.000002 -0.000006 -8.728667 10.710559 -0.000009 -0.000000 -0.000000 -0.000001 -0.000679 9.278123 0.000000 -0.000000 -0.000000 8.207792 -6.751710 -1.599556 -0.074518 -0.000003 0.000081 -0.000002 -44.370014 0.346960 0.148822 0.000002 0.000000 -0.000001 -44.423664 -3.044403 -0.074314 0.000000 -0.000002 -0.000004 -8.728671 10.710558 0.000007 -0.000000 -0.000000 0.000000 -0.000680 9.278137 -0.000000 0.000000 -0.000001 
0.000006 104.270477 1.554256 0.000010 0.000003 -0.000113 -0.000005 10.181587 0.131522 0.000001 -0.000003 0.000084 -0.000000 9.893967 -1.470711 0.000001 0.000000 -0.000000 -0.000000 9.220802 -1.370642 0.000000 -0.000000 -0.000000 0.000001 16.740433 -2.049030 0.000000 -0.000000 -0.000000 0.000000 9.617859 1.685014 0.000000 0.000000 0.000000 0.000002 22.037384 7.501101 0.000000 -0.000000 0.000000 -4.569968 11.014880 -2.160881 0.000008 0.000001 -0.000038 -10.592870 -0.524779 -2.231887 75.258801 32.408821 -25.255809 -27.841515 0.000012 0.000559 -51.709064 104.943049 64.494375 -28.328804 0.000008 0.000026 -0.000317 -0.000043 0.000004 -2.464410 -1.573789 2.682327 -47.221220 -161.485466 -8.418786 -3.215281 -1.872592 1.924638 152.020982 31.704485 6.800900 -2.654959 -1.527905 1.513078 144.322184 27.643177 -34.533317 -2.018842 -1.152014 1.108060 -0.000003 -0.000001 0.000002 -9.108386 -0.517558 2.260137 101.567843 16.674394 -20.418620 -3.700076 0.000298 0.001519 97.719749 14.160713 -16.157205 -2.850091 0.000359 -0.000263 95.623960 11.716705 -12.916379 -2.772164 -0.000001 -0.000019 0.000000 -0.000001 0.000000 -9.532586 0.000266 0.000253 95.612540 16.731247 -18.585361 -3.700076 0.000305 0.003967 94.322515 12.512916 -13.383270 -2.950060 0.000318 -0.001794 95.853563 11.914386 -13.179660 -2.946632 0.000002 -0.000154 0.000004 -0.000001 0.000000 -9.103714 -0.042781 -1.864866 94.586447 18.254251 -19.699696 -3.379336 0.000319 -0.000813 96.227175 9.686670 -10.814203 -2.889757 0.000361 0.000659 103.042187 7.356063 -9.305092 -2.638808 0.000011 0.000942 -0.000001 -0.000001 -0.000000 -8.076765 -0.486421 -3.806013 86.044087 20.795597 -19.288893 -3.600044 0.000289 -0.003500 91.791950 9.988274 -9.930669 -2.100021 0.000321 -0.005454 97.103420 5.467058 -5.941591 -2.115773 -0.000053 -0.003678 0.000001 0.000000 -0.000001 4.570446 11.014691 -2.160851 -0.000018 0.000010 -0.000021 10.592402 -0.524482 -2.232355 71.701639 -13.110673 9.493283 27.841831 0.000069 -0.000181 104.571255 -73.492023 87.990233 28.328833 -0.000029 0.000017 0.000021 -0.000088 -0.000000 2.466252 -1.576015 2.681821 11.616828 172.414042 -109.893646 3.217840 -1.871791 1.916402 169.893033 -24.962970 26.033073 2.656112 -1.528678 1.514497 141.108402 -26.675210 61.585377 2.020883 -1.154073 1.115152 0.000004 0.000005 0.000006 9.109373 -0.517865 2.259753 88.099707 -20.755963 20.080252 3.700054 0.000151 -0.000460 84.627963 -11.809704 10.773007 2.850032 0.000198 0.000206 83.443724 -8.746980 7.801256 2.774864 -0.000030 -0.000025 0.000001 0.000000 -0.000000 9.533455 0.000214 -0.000079 86.940146 -19.388882 18.389152 3.700037 0.000205 -0.000372 89.566333 -8.924224 8.854647 2.950046 0.000194 -0.000207 90.466436 -10.116881 10.202019 2.952851 -0.000030 0.000056 0.000003 -0.000001 -0.000000 9.104592 -0.042854 -1.865197 84.993713 -18.801632 17.253200 3.150039 0.000220 -0.000107 92.316229 -10.475049 10.906613 2.950025 0.000184 -0.000081 93.271731 -9.787885 10.362159 2.644331 0.000046 0.000053 0.000001 0.000000 0.000001 8.077835 -0.486733 -3.806374 74.345544 -19.660517 15.437476 3.600017 0.000164 0.014565 77.106586 -15.793112 13.036533 2.100036 0.000177 0.007545 78.753584 -12.661396 10.806558 2.125497 0.000002 0.007516 0.000000 0.000002 -0.000001 -8.207786 -6.751667 -1.599560 -0.077001 -0.000003 0.000080 -0.000002 -44.370110 0.345938 0.153719 -0.000000 -0.000000 0.000000 -44.423679 -3.043532 -0.076700 0.000000 -0.000002 -0.000006 -8.728667 10.710559 -0.000009 -0.000000 -0.000000 -0.000001 -0.000679 9.278123 0.000000 -0.000000 -0.000000 8.207792 -6.751710 -1.599556 -0.074518 -0.000003 0.000081 -0.000002 -44.370014 0.346960 0.148822 0.000002 0.000000 -0.000001 -44.423664 -3.044403 -0.074314 0.000000 -0.000002 -0.000004 -8.728671 10.710558 0.000007 -0.000000 -0.000000 0.000000 -0.000680 9.278137 -0.000000 0.000000 -0.000001 
